<svg data-v-fde0c5aa="" xmlns="http://www.w3.org/2000/svg" viewBox="0 0 300 300" class="iconLeft"><!----><defs data-v-fde0c5aa=""><linearGradient data-v-fde0c5aa="" gradientTransform="rotate(25)" id="51a3a51c-f12a-46ad-a3a2-e56ac59459e0" x1="0%" y1="0%" x2="100%" y2="0%"><stop data-v-fde0c5aa="" offset="0%" stop-color="#5F2517" stop-opacity="1"></stop><stop data-v-fde0c5aa="" offset="100%" stop-color="#FFEDB5" stop-opacity="1"></stop></linearGradient></defs><rect data-v-fde0c5aa="" fill="url(#51a3a51c-f12a-46ad-a3a2-e56ac59459e0)" x="0" y="0" width="300px" height="300px" class="logo-background-square"></rect><defs data-v-fde0c5aa=""><!----></defs><g data-v-fde0c5aa="" id="667fa313-d462-48d3-b92d-6bc04f8aedb2" fill="#ffffff" transform="matrix(2.4351453076963665,0,0,2.4351453076963665,78.36252419049174,133.16096941929723)"><path d="M9.25 1.82L9.25 1.82Q9.25 1.64 9.37 1.52L9.37 1.52L9.37 1.52Q9.49 1.40 9.67 1.40L9.67 1.40L9.67 1.40Q9.84 1.40 9.97 1.52L9.97 1.52L9.97 1.52Q10.09 1.64 10.09 1.82L10.09 1.82L10.09 11.91L10.09 11.91Q10.09 12.10 9.97 12.21L9.97 12.21L9.97 12.21Q9.84 12.33 9.67 12.33L9.67 12.33L9.67 12.33Q9.48 12.33 9.37 12.21L9.37 12.21L2.24 2.94L2.24 11.91L2.24 11.91Q2.24 12.10 2.12 12.21L2.12 12.21L2.12 12.21Q2.00 12.33 1.82 12.33L1.82 12.33L1.82 12.33Q1.64 12.33 1.52 12.21L1.52 12.21L1.52 12.21Q1.40 12.10 1.40 11.91L1.40 11.91L1.40 1.82L1.40 1.82Q1.40 1.64 1.52 1.52L1.52 1.52L1.52 1.52Q1.64 1.40 1.82 1.40L1.82 1.40L1.82 1.40Q2.02 1.40 2.14 1.54L2.14 1.54L9.25 10.79L9.25 1.82ZM15.93 4.61L15.93 4.61Q16.95 4.61 17.76 5.09L17.76 5.09L17.76 5.09Q18.56 5.57 19.01 6.43L19.01 6.43L19.01 6.43Q19.46 7.28 19.46 8.37L19.46 8.37L19.46 8.37Q19.46 8.55 19.35 8.66L19.35 8.66L19.35 8.66Q19.24 8.76 19.05 8.76L19.05 8.76L13.19 8.76L13.19 8.76Q13.23 9.59 13.62 10.24L13.62 10.24L13.62 10.24Q14.01 10.89 14.67 11.26L14.67 11.26L14.67 11.26Q15.33 11.62 16.14 11.62L16.14 11.62L16.14 11.62Q16.69 11.62 17.24 11.43L17.24 11.43L17.24 11.43Q17.79 11.24 18.12 10.93L18.12 10.93L18.12 10.93Q18.26 10.82 18.41 10.82L18.41 10.82L18.41 10.82Q18.56 10.82 18.66 10.91L18.66 10.91L18.66 10.91Q18.82 11.03 18.82 11.20L18.82 11.20L18.82 11.20Q18.82 11.34 18.69 11.47L18.69 11.47L18.69 11.47Q18.24 11.87 17.52 12.14L17.52 12.14L17.52 12.14Q16.80 12.40 16.14 12.40L16.14 12.40L16.14 12.40Q15.04 12.40 14.18 11.91L14.18 11.91L14.18 11.91Q13.31 11.41 12.82 10.52L12.82 10.52L12.82 10.52Q12.33 9.63 12.33 8.51L12.33 8.51L12.33 8.51Q12.33 7.38 12.79 6.49L12.79 6.49L12.79 6.49Q13.24 5.60 14.06 5.10L14.06 5.10L14.06 5.10Q14.88 4.61 15.93 4.61L15.93 4.61ZM15.93 5.39L15.93 5.39Q14.84 5.39 14.09 6.12L14.09 6.12L14.09 6.12Q13.34 6.85 13.20 8.04L13.20 8.04L18.65 8.04L18.65 8.04Q18.55 6.85 17.81 6.12L17.81 6.12L17.81 6.12Q17.07 5.39 15.93 5.39L15.93 5.39ZM26.85 11.65L26.85 11.65Q26.98 11.82 26.98 11.97L26.98 11.97L26.98 11.97Q26.98 12.14 26.85 12.24L26.85 12.24L26.85 12.24Q26.73 12.33 26.60 12.33L26.60 12.33L26.60 12.33Q26.43 12.33 26.34 12.28L26.34 12.28L26.34 12.28Q26.25 12.22 26.12 12.07L26.12 12.07L23.77 8.95L21.22 12.21L21.22 12.21Q21.14 12.33 20.93 12.33L20.93 12.33L20.93 12.33Q20.75 12.33 20.63 12.21L20.63 12.21L20.63 12.21Q20.51 12.08 20.51 11.91L20.51 11.91L20.51 11.91Q20.51 11.76 20.61 11.65L20.61 11.65L23.21 8.41L20.92 5.38L20.92 5.38Q20.82 5.26 20.82 5.10L20.82 5.10L20.82 5.10Q20.82 4.93 20.94 4.80L20.94 4.80L20.94 4.80Q21.06 4.68 21.24 4.68L21.24 4.68L21.24 4.68Q21.42 4.68 21.55 4.80L21.55 4.80L23.79 7.78L26.12 4.93L26.12 4.93Q26.33 4.68 26.56 4.68L26.56 4.68L26.56 4.68Q26.74 4.68 26.84 4.79L26.84 4.79L26.84 4.79Q26.95 4.90 26.95 5.07L26.95 5.07L26.95 5.07Q26.95 5.22 26.84 5.38L26.84 5.38L24.36 8.33L26.85 11.65ZM35.35 4.68L35.35 4.68Q35.55 4.68 35.66 4.79L35.66 4.79L35.66 4.79Q35.77 4.90 35.77 5.10L35.77 5.10L35.77 11.91L35.77 11.91Q35.77 12.10 35.66 12.21L35.66 12.21L35.66 12.21Q35.55 12.33 35.35 12.33L35.35 12.33L35.35 12.33Q35.17 12.33 35.05 12.21L35.05 12.21L35.05 12.21Q34.93 12.10 34.93 11.91L34.93 11.91L34.93 11.19L34.93 11.19Q34.45 11.77 33.77 12.10L33.77 12.10L33.77 12.10Q33.08 12.43 32.27 12.43L32.27 12.43L32.27 12.43Q31.25 12.43 30.44 12.01L30.44 12.01L30.44 12.01Q29.64 11.59 29.18 10.79L29.18 10.79L29.18 10.79Q28.73 9.98 28.73 8.86L28.73 8.86L28.73 5.10L28.73 5.10Q28.73 4.91 28.85 4.79L28.85 4.79L28.85 4.79Q28.97 4.68 29.15 4.68L29.15 4.68L29.15 4.68Q29.33 4.68 29.45 4.79L29.45 4.79L29.45 4.79Q29.57 4.91 29.57 5.10L29.57 5.10L29.57 8.86L29.57 8.86Q29.57 10.19 30.32 10.89L30.32 10.89L30.32 10.89Q31.07 11.59 32.27 11.59L32.27 11.59L32.27 11.59Q33.01 11.59 33.62 11.30L33.62 11.30L33.62 11.30Q34.23 11.02 34.58 10.51L34.58 10.51L34.58 10.51Q34.93 10.00 34.93 9.38L34.93 9.38L34.93 5.10L34.93 5.10Q34.93 4.90 35.05 4.79L35.05 4.79L35.05 4.79Q35.17 4.68 35.35 4.68L35.35 4.68ZM40.91 4.59L40.91 4.59Q42.67 4.59 43.58 5.85L43.58 5.85L43.58 5.85Q43.67 5.95 43.67 6.09L43.67 6.09L43.67 6.09Q43.67 6.29 43.44 6.41L43.44 6.41L43.44 6.41Q43.30 6.47 43.23 6.47L43.23 6.47L43.23 6.47Q43.02 6.47 42.88 6.29L42.88 6.29L42.88 6.29Q42.17 5.38 40.88 5.38L40.88 5.38L40.88 5.38Q40.03 5.38 39.52 5.75L39.52 5.75L39.52 5.75Q39.02 6.12 39.02 6.66L39.02 6.66L39.02 6.66Q39.02 7.22 39.50 7.56L39.50 7.56L39.50 7.56Q39.98 7.90 41.12 8.06L41.12 8.06L41.12 8.06Q42.60 8.27 43.25 8.86L43.25 8.86L43.25 8.86Q43.90 9.44 43.90 10.26L43.90 10.26L43.90 10.26Q43.90 10.91 43.49 11.40L43.49 11.40L43.49 11.40Q43.08 11.89 42.39 12.15L42.39 12.15L42.39 12.15Q41.71 12.42 40.89 12.42L40.89 12.42L40.89 12.42Q40.08 12.42 39.31 12.13L39.31 12.13L39.31 12.13Q38.54 11.84 38.04 11.26L38.04 11.26L38.04 11.26Q37.94 11.14 37.94 11.00L37.94 11.00L37.94 11.00Q37.94 10.81 38.12 10.68L38.12 10.68L38.12 10.68Q38.21 10.61 38.36 10.61L38.36 10.61L38.36 10.61Q38.56 10.61 38.68 10.77L38.68 10.77L38.68 10.77Q39.38 11.62 40.94 11.62L40.94 11.62L40.94 11.62Q42.04 11.62 42.57 11.23L42.57 11.23L42.57 11.23Q43.09 10.84 43.09 10.22L43.09 10.22L43.09 10.22Q43.09 9.11 40.95 8.81L40.95 8.81L40.95 8.81Q39.59 8.61 38.90 8.06L38.90 8.06L38.90 8.06Q38.21 7.52 38.21 6.75L38.21 6.75L38.21 6.75Q38.21 5.73 38.95 5.16L38.95 5.16L38.95 5.16Q39.70 4.59 40.91 4.59L40.91 4.59ZM53.84 1.82L53.84 1.82Q53.84 1.64 53.96 1.52L53.96 1.52L53.96 1.52Q54.08 1.40 54.26 1.40L54.26 1.40L54.26 1.40Q54.43 1.40 54.56 1.52L54.56 1.52L54.56 1.52Q54.68 1.64 54.68 1.82L54.68 1.82L54.68 11.91L54.68 11.91Q54.68 12.10 54.56 12.21L54.56 12.21L54.56 12.21Q54.43 12.33 54.26 12.33L54.26 12.33L54.26 12.33Q54.08 12.33 53.96 12.21L53.96 12.21L53.96 12.21Q53.84 12.10 53.84 11.91L53.84 11.91L53.84 7.20L46.77 7.20L46.77 11.91L46.77 11.91Q46.77 12.10 46.66 12.21L46.66 12.21L46.66 12.21Q46.54 12.33 46.35 12.33L46.35 12.33L46.35 12.33Q46.17 12.33 46.05 12.21L46.05 12.21L46.05 12.21Q45.93 12.10 45.93 11.91L45.93 11.91L45.93 1.82L45.93 1.82Q45.93 1.64 46.05 1.52L46.05 1.52L46.05 1.52Q46.17 1.40 46.35 1.40L46.35 1.40L46.35 1.40Q46.54 1.40 46.66 1.52L46.66 1.52L46.66 1.52Q46.77 1.64 46.77 1.82L46.77 1.82L46.77 6.44L53.84 6.44L53.84 1.82ZM63.83 4.68L63.83 4.68Q64.02 4.68 64.13 4.79L64.13 4.79L64.13 4.79Q64.25 4.90 64.25 5.10L64.25 5.10L64.25 11.91L64.25 11.91Q64.25 12.10 64.13 12.21L64.13 12.21L64.13 12.21Q64.02 12.33 63.83 12.33L63.83 12.33L63.83 12.33Q63.64 12.33 63.53 12.21L63.53 12.21L63.53 12.21Q63.41 12.10 63.41 11.91L63.41 11.91L63.41 11.19L63.41 11.19Q62.93 11.77 62.24 12.10L62.24 12.10L62.24 12.10Q61.56 12.43 60.75 12.43L60.75 12.43L60.75 12.43Q59.72 12.43 58.92 12.01L58.92 12.01L58.92 12.01Q58.11 11.59 57.66 10.79L57.66 10.79L57.66 10.79Q57.20 9.98 57.20 8.86L57.20 8.86L57.20 5.10L57.20 5.10Q57.20 4.91 57.32 4.79L57.32 4.79L57.32 4.79Q57.44 4.68 57.62 4.68L57.62 4.68L57.62 4.68Q57.81 4.68 57.93 4.79L57.93 4.79L57.93 4.79Q58.04 4.91 58.04 5.10L58.04 5.10L58.04 8.86L58.04 8.86Q58.04 10.19 58.79 10.89L58.79 10.89L58.79 10.89Q59.54 11.59 60.75 11.59L60.75 11.59L60.75 11.59Q61.49 11.59 62.10 11.30L62.10 11.30L62.10 11.30Q62.71 11.02 63.06 10.51L63.06 10.51L63.06 10.51Q63.41 10.00 63.41 9.38L63.41 9.38L63.41 5.10L63.41 5.10Q63.41 4.90 63.53 4.79L63.53 4.79L63.53 4.79Q63.64 4.68 63.83 4.68L63.83 4.68ZM67.19 1.40L67.19 1.40Q66.99 1.40 66.88 1.51L66.88 1.51L66.88 1.51Q66.77 1.62 66.77 1.82L66.77 1.82L66.77 8.55L66.77 8.58L66.77 8.58Q66.78 9.66 67.30 10.54L67.30 10.54L67.30 10.54Q67.82 11.42 68.70 11.92L68.70 11.92L68.70 11.92Q69.59 12.42 70.67 12.42L70.67 12.42L70.67 12.42Q71.78 12.42 72.67 11.91L72.67 11.91L72.67 11.91Q73.57 11.40 74.08 10.50L74.08 10.50L74.08 10.50Q74.59 9.60 74.59 8.50L74.59 8.50L74.59 8.50Q74.59 7.41 74.08 6.51L74.08 6.51L74.08 6.51Q73.57 5.61 72.67 5.10L72.67 5.10L72.67 5.10Q71.78 4.59 70.67 4.59L70.67 4.59L70.67 4.59Q69.68 4.59 68.87 5.02L68.87 5.02L68.87 5.02Q68.07 5.45 67.61 6.19L67.61 6.19L67.61 1.82L67.61 1.82Q67.61 1.62 67.49 1.51L67.49 1.51L67.49 1.51Q67.37 1.40 67.19 1.40L67.19 1.40ZM70.67 11.63L70.67 11.63Q69.80 11.63 69.10 11.22L69.10 11.22L69.10 11.22Q68.40 10.81 68.00 10.09L68.00 10.09L68.00 10.09Q67.61 9.38 67.61 8.50L67.61 8.50L67.61 8.50Q67.61 7.62 68.00 6.90L68.00 6.90L68.00 6.90Q68.40 6.19 69.10 5.78L69.10 5.78L69.10 5.78Q69.80 5.38 70.67 5.38L70.67 5.38L70.67 5.38Q71.54 5.38 72.24 5.78L72.24 5.78L72.24 5.78Q72.94 6.19 73.35 6.90L73.35 6.90L73.35 6.90Q73.75 7.62 73.75 8.50L73.75 8.50L73.75 8.50Q73.75 9.38 73.35 10.09L73.35 10.09L73.35 10.09Q72.94 10.81 72.24 11.22L72.24 11.22L72.24 11.22Q71.54 11.63 70.67 11.63L70.67 11.63Z"></path></g><defs data-v-fde0c5aa=""><!----></defs><g data-v-fde0c5aa="" id="d775e3a6-a655-4836-a423-216f573943e0" stroke="none" fill="#ffffff" transform="matrix(1.2590463007487114,0,0,1.2590463007487114,34.24112236926469,129.85525918802063)"><path d="M27.377 11.377L16 0 4.623 11.377 16 22.753l11.377-11.376zM16 6.026l5.35 5.35L16 16.727l-5.35-5.35L16 6.026zM27.426 14.969l-5.664 5.664V32h5.664zM10.238 20.633l-5.664-5.664V32h5.664z"></path></g><!----></svg>